Coordinates
version=1
nRows=5
nColumns=63
inDegrees=yes

Units are S.I. units (second, meters, Newtons, ...)
If the header above contains a line with 'inDegrees', this indicates whether rotational values are in degrees (yes) or radians (no).

endheader
time	pelvis_tilt	pelvis_list	pelvis_rotation	pelvis_tx	pelvis_ty	pelvis_tz	hip_flexion_r	hip_adduction_r	hip_rotation_r	knee_angle_r	knee_angle_r_beta	ankle_angle_r	subtalar_angle_r	mtp_angle_r	hip_flexion_l	hip_adduction_l	hip_rotation_l	knee_angle_l	knee_angle_l_beta	ankle_angle_l	subtalar_angle_l	mtp_angle_l	L5_S1_Flex_Ext	L5_S1_Lat_Bending	L5_S1_axial_rotation	L4_L5_Flex_Ext	L4_L5_Lat_Bending	L4_L5_axial_rotation	L3_L4_Flex_Ext	L3_L4_Lat_Bending	L3_L4_axial_rotation	L2_L3_Flex_Ext	L2_L3_Lat_Bending	L2_L3_axial_rotation	L1_L2_Flex_Ext	L1_L2_Lat_Bending	L1_L2_axial_rotation	L1_T12_Flex_Ext	L1_T12_Lat_Bending	L1_T12_axial_rotation	Abs_r3	Abs_r2	Abs_r1	Abs_t1	Abs_t2	neck_flexion	neck_bending	neck_rotation	arm_flex_r	arm_add_r	arm_rot_r	elbow_flex_r	pro_sup_r	wrist_flex_r	wrist_dev_r	arm_flex_l	arm_add_l	arm_rot_l	elbow_flex_l	pro_sup_l	wrist_flex_l	wrist_dev_l
      1.42372881	     -5.18919903	     -0.47694917	     83.05719611	      0.10760454	      1.04246014	      0.35248938	      5.33499174	     -4.65599284	    -10.01855159	     15.65447492	      0.27322213	     43.63181559	     18.43955445	      0.00000000	      6.34423400	      3.31077855	    -11.82484201	     16.48466585	      0.28771170	     40.03230482	     11.82244411	      0.00000000	     -0.48773226	     -0.14870273	      0.07089036	     -0.90576758	     -0.19777463	      0.07532101	     -0.80129533	     -0.36155581	      0.07532101	     -0.55742920	     -0.36155581	      0.06202907	     -0.45290818	     -0.30323460	      0.05759842	     -0.27869021	     -0.23034053	      0.05316777	     -3.48382275	     -1.68215500	      0.39427093	      0.00000000	      0.00000000	      1.26987159	     -0.09611486	     12.79898588	     12.96127803	    -10.60440507	    111.52543330	      2.01093420	      0.91514506	      8.42327488	    -23.92698936	      2.95372674	    -15.65475512	    141.76816122	      0.91807872	      1.86539699	     -7.27358410	    -15.67049031
      1.44067797	     -5.44106472	     -0.04666124	     83.04978610	      0.11058730	      1.04778651	      0.35267512	      4.58810644	     -4.62986215	     -9.45655301	     14.67250395	      0.25608350	     42.65072962	     18.27458459	      0.00000000	      5.64690416	      3.48859583	    -12.31329720	     15.71142851	      0.27421616	     39.00155571	     11.99077108	      0.00000000	     -0.42620246	     -0.21476095	     -0.32711221	     -0.79150059	     -0.28563206	     -0.34755672	     -0.70020802	     -0.52216977	     -0.34755672	     -0.48710679	     -0.52216977	     -0.28622318	     -0.39577160	     -0.43794052	     -0.26577867	     -0.24353209	     -0.33266471	     -0.24533416	     -3.04432154	     -2.42941879	     -1.81929996	      0.00000000	      0.00000000	     -2.08566303	     -0.01681197	     14.13565214	     15.54330746	     -9.03837201	    114.86325552	      0.77604609	      0.66609895	     18.87221160	    -24.47379437	      1.79197882	    -16.88906039	    138.98154334	      0.40985553	      1.53150029	    -16.30174557	    -21.10490769
      1.45762712	     -5.33690924	      0.48243938	     83.13042848	      0.11213756	      1.05270609	      0.35340291	      3.76596738	     -4.35515493	     -9.10194413	     13.85187872	      0.24176089	     41.77155841	     18.14318950	      0.00000000	      4.98254425	      3.37680272	    -12.54368679	     15.27280287	      0.26656070	     38.28732528	     12.02606719	      0.00000000	     -0.38810824	     -0.20958899	     -0.73230102	     -0.72075581	     -0.27875336	     -0.77806983	     -0.63762303	     -0.50959468	     -0.77806983	     -0.44356891	     -0.50959468	     -0.64076339	     -0.36039731	     -0.42739387	     -0.59499458	     -0.22176505	     -0.32465335	     -0.54922576	     -2.77221836	     -2.37091260	     -4.07283858	      0.00000000	      0.00000000	     -5.41904711	     -0.68479267	     15.58596331	     18.29042179	     -8.13393916	    114.27594159	      0.66532158	      0.56341962	     38.34426916	    -24.60686959	      0.56988453	    -17.33894407	    138.70084119	      0.25036070	      1.41787757	    -34.28821512	    -23.51698152
      1.47457627	     -5.39381001	      1.08760445	     83.16042266	      0.11367425	      1.05631378	      0.35444335	      3.06238198	     -4.31634195	     -8.86427871	     13.40907198	      0.23403246	     41.25601809	     18.05884272	      0.00000000	      4.32546923	      3.46008272	    -12.65431141	     14.95824208	      0.26107057	     37.87807942	     11.91833155	      0.00000000	     -0.37917684	     -0.22171608	     -1.09495748	     -0.70416932	     -0.29488238	     -1.16339233	     -0.62294964	     -0.53908046	     -1.16339233	     -0.43336122	     -0.53908046	     -0.95808780	     -0.35210362	     -0.45212342	     -0.88965296	     -0.21666165	     -0.34343820	     -0.82121811	     -2.70842228	     -2.50809658	     -6.08982504	      0.00000000	      0.00000000	     -8.24480832	     -1.33440973	     17.12203858	     20.74624252	     -6.76328248	    113.09247650	      0.86638030	      0.49434097	     60.37606558	    -24.61846046	     -0.68713505	    -17.96124161	    142.05298863	      0.17781340	      1.54036118	    -58.76614433	    -23.19587316
      1.49152542	     -1.38223955	     -0.48269775	     82.71530746	      0.09787237	      1.05029540	      0.34926835	      4.12502609	     -0.89346554	     -9.23614671	     13.46136781	      0.23494519	     41.21139922	     18.44616960	      0.00000000	      6.01438164	      0.39912028	     -9.05236062	     16.23378872	      0.28333306	     40.75546036	      7.21702002	      0.00000000	     -0.31818843	      0.72498612	      1.15401770	     -0.59090774	      0.96423154	      1.22614381	     -0.52275178	      1.76273126	      1.22614381	     -0.36365756	      1.76273126	      1.00976549	     -0.29546978	      1.47839170	      0.93763938	     -0.18181287	      1.12300350	      0.86551328	     -2.27278816	      8.20118802	      6.41830025	      0.00000000	      0.00000000	     -5.62306334	     -8.30710979	     12.21984003	    -16.41678887	    -22.62255489	      2.14553682	     80.02645158	     78.79392356	     -0.70378831	      4.39449395	      6.42032429	    -12.47316841	    157.74125794	      0.15190964	      1.74201970	    -67.21323687	    -23.06107469
